<svg id="Layer_1" data-name="Layer 1" xmlns="http://www.w3.org/2000/svg" viewBox="0 0 509.44 59.31"><defs><style>.cls-1,.cls-3,.cls-4{fill:#e6e7e8;}.cls-2{fill:#f1f2f2;}.cls-3,.cls-4{isolation:isolate;font-size:44px;}.cls-3{font-family:Arial-BoldMT, Arial;font-weight:700;}.cls-4{font-family:ArialMT, Arial;}.cls-5{fill:none;stroke:#d1d3d4;stroke-miterlimit:10;}</style></defs><title>logo</title><path class="cls-1" d="M.83,26.16a1.67,1.67,0,0,1,1.38-1.1c2.43-.64,4.84-1.4,7.29-2A2.6,2.6,0,0,0,11.76,21a12.06,12.06,0,0,1,.58-1.56l-.81.22A4.36,4.36,0,0,0,10.13,21c-.83.91-1.15.55-1.33-.47-.23-1.34-.54-2.67-.81-4A1.86,1.86,0,0,1,9.47,14a7.43,7.43,0,0,0,3.29-1.68L6.24,13.8c-1.27.54-1.31.5-1.35-.85a4.61,4.61,0,0,1,.26-1.8c.46-.43,1.3-.11,1.61-.86.1-.24.29,0,.35.14.5,1.24,1.36,1.08,2.38.57-.73-.91-1-2.33-2.7-2.06-.4-.22-.81,0-1-.1A.54.54,0,0,1,6.32,9c-.43.37-1.08.14-1.53.71-.22.28-.94-.23-1.21-.7S3,7.89,2.73,7.33c.07-.29.29-.54.16-.86A13.47,13.47,0,0,1,6,5.17a.58.58,0,0,0,.76-.3h0C7.66,2.24,9.92,2.5,12,2.39c.08-.15,0-.2-.1-.3-.37-.48-1.69.12-1.32-.71A1.91,1.91,0,0,1,12.86.08,37.69,37.69,0,0,0,18.5,1.33a2.33,2.33,0,0,1,1.51,1C21.14,3.91,22.3,5.47,23.45,7c-.25.37-1-.26-1,.49C24.15,8.1,25,9.1,24.64,11a27.8,27.8,0,0,0,0,4.39,37.86,37.86,0,0,0-2.9-3,18.9,18.9,0,0,0-1.27,2.18A2,2,0,0,1,18,16l-.26-.09a4.54,4.54,0,0,0-.81-.07c.26.7,1.21.28,1.4,1a2.84,2.84,0,0,0,2,.37,2.08,2.08,0,0,0,.72-1.41l.84-1.53a26.59,26.59,0,0,1,1.95,3.59c1,2.75,3.49,3.64,5.64,5,.93.58,1.9,1.12,2.84,1.68.28.17.22.46.19.73.23.46,0,1,.21,1.44A5.52,5.52,0,0,0,34,29.79c1,1.3,1.94,2.69,2.91,4a1.21,1.21,0,0,1,.31.87q-.44,3.69-.89,7.38c-.43-.32-.31-.83-.46-1.24-.34.16-.19.53-.35.77s-.26.5-.58.49-.45-.25-.5-.54a1.38,1.38,0,0,1,0-.26c-1.63-.23-1.09-1.62-1.39-2.57a3.49,3.49,0,0,0-2-3.25,11,11,0,0,1-3.59-3.38,3.6,3.6,0,0,0-1-.91c-2-1.34-4-2.68-6-4-1.18-.76-2.61-1.36-1.47-3.22l-3.32,2.23a4.82,4.82,0,0,1-2.66.16c-1.65-.33-3.31-.1-5-.32a1.43,1.43,0,0,0-1.55,1.2,1.69,1.69,0,0,1-2.2.93l-.15-.07A32.09,32.09,0,0,0,1,27.25,1.76,1.76,0,0,1,.83,26.16Z" transform="translate(0 -0.03)"/><path class="cls-1" d="M16.2,41.17a6.7,6.7,0,0,1,3.11-.72c.7,0,1-.38,1-.74,0-1.11.22-2.2-.93-3.12-3.41-2.74-3.36-2.8-2-7,.75-2.26.75-2.26,2.8-1,1.41.91,2.78,1.89,4.25,2.69,1,.52.92,1,.4,1.77-.38.56-.67,1.18-1,1.76.06.1.1.22.16.23,1.92.29,1.93.3,1.34,2.18s-1.2,3.79-1.8,5.68H17.76C15.84,42.95,15.9,42.93,16.2,41.17Z" transform="translate(0 -0.03)"/><path class="cls-1" d="M4.93,19.86c-.93.28-.27,1.27-.78,1.73-.12,0-.19-.26-.19-.14,0,.37-.26.61-.32.93-1,.53-1.8,1.55-3.15.94C0,23.11-.16,23,.14,22.46c1.06-1.84,2.08-3.69,3.1-5.55.15-.27.3-.45.62-.39.85.15,1.7.27,2.53.47.53.12.45.6.42,1a8.33,8.33,0,0,0-.13,1.82.47.47,0,0,1-.49.24C5.76,20,5.4,19.57,4.93,19.86Z" transform="translate(0 -0.03)"/><path class="cls-1" d="M37.16,23.1c.42.52,1,1.11.92,1.72a26.76,26.76,0,0,1-1.17,3.6c-.1.29-.35.18-.57.14-2-.35-2.48-.9-2.64-3.21L36,26.65a2.72,2.72,0,0,0-.1-3.25,9.11,9.11,0,0,1-.7-1.31,1.2,1.2,0,0,0,0-.53c-.07-.22-.1-.47.17-.58s.41.11.53.3.28.66.5,1A1.77,1.77,0,0,0,37.16,23.1Z" transform="translate(0 -0.03)"/><path class="cls-1" d="M33.06,38.71c0,1.41,1.16,2.14,2,3.11a3.74,3.74,0,0,0,.49-1.55c.13-.53.32.11.51.08a.54.54,0,0,1,.07.12c.26,2.38.18,2.47-2.16,2.47h-3.8c-.34,0-.9.27-.94-.42a1.12,1.12,0,0,1,.57-1.14c.34-.19.84,0,1-.48a2.86,2.86,0,0,1,.74-.27C32.76,40.53,33.29,39.91,33.06,38.71Z" transform="translate(0 -0.03)"/><path class="cls-1" d="M36.31,22.34l-.82-1.19c-.42.23.25.79-.31.94a48.39,48.39,0,0,1-3.24-6c-.21-.87.26-.77.8-.56A68.15,68.15,0,0,1,36.35,22,.25.25,0,0,1,36.31,22.34Z" transform="translate(0 -0.03)"/><path class="cls-1" d="M6.52,27.24c-.11-1.3.87-1.45,1.73-1.43,2.49.06,5,.25,7.45.39-.34.57-.89.51-1.43.47-1.75-.11-3.52-.11-5.26-.34A2.53,2.53,0,0,0,6.52,27.24Z" transform="translate(0 -0.03)"/><path class="cls-1" d="M30.83,40.88a1.55,1.55,0,0,1,.4,0c.37.13.14.2,0,.26H31.1c-.63.3-1.84.17-1.57,1.22.2.81,1.23.28,1.87.34,1,.08,2.07,0,3.11,0s1.82-.35,1.57-1.65a4.4,4.4,0,0,1,0-.81c.51.49.15,1.14.3,1.7.12.77-.06,1.15-1,1.11-1.81-.08-3.63,0-5.45,0-.37,0-1.12.35-1.08-.31s-.11-1.45.81-1.67A7.29,7.29,0,0,0,30.83,40.88Z" transform="translate(0 -0.03)"/><path class="cls-1" d="M29.76,12c-.18-.61-.09-1,.61-.54a8.08,8.08,0,0,1,1,.87c.64.92,1,1.84,0,2.74A4.21,4.21,0,0,1,30,14C29.76,13.33,30.07,12.62,29.76,12Z" transform="translate(0 -0.03)"/><path class="cls-1" d="M16.2,41.17c.22.06.74-.17.3.44-.72,1-.22,1.26.77,1.19,2-.14,4.1.3,6.13-.24a3.49,3.49,0,0,1,.13.35c-.88.49-1.83.18-2.75.21-1.75,0-3.51,0-5.31,0A4.17,4.17,0,0,1,16.2,41.17Z" transform="translate(0 -0.03)"/><path class="cls-1" d="M31.36,15a3.29,3.29,0,0,0,0-2.74.78.78,0,0,1,.71.94,4,4,0,0,0,.62,2.28c-.4,0-.79,0-.8.56A2.06,2.06,0,0,1,31.36,15Z" transform="translate(0 -0.03)"/><path class="cls-1" d="M5.19,11.15c.14.13.71,0,.45.23-.81.67-.4,1.49-.39,2.2,0,1,.79-.39,1,.23L4.94,15a10.18,10.18,0,0,1,0-3.78A.21.21,0,0,1,5.19,11.15Z" transform="translate(0 -0.03)"/><path class="cls-1" d="M4.95,11.19V15A5.25,5.25,0,0,1,4.95,11.19Z" transform="translate(0 -0.03)"/><path class="cls-1" d="M20.49,17.43a2.06,2.06,0,0,1-2.17-.59c.7-.33,1.43.61,2.13,0A.42.42,0,0,1,20.49,17.43Z" transform="translate(0 -0.03)"/><path class="cls-1" d="M.83,26.16c0,.38.67.66.2,1.13-.26,0-.71,0-.75-.15C.14,26.68.55,26.44.83,26.16Z" transform="translate(0 -0.03)"/><path class="cls-1" d="M6,19.89h.55q.15-.23.32,0c.36.14.48.56.25.68s-.79-.09-1.16-.28a.25.25,0,0,1,0-.35Z" transform="translate(0 -0.03)"/><path class="cls-1" d="M6,19.89v.38c-.37-.1-.78-.08-1-.41-.09-.1-.23-.18-.27-.29-.09-.33.2-.23.29-.18C5.31,19.57,5.76,19.53,6,19.89Z" transform="translate(0 -0.03)"/><path class="cls-1" d="M10.12,20.92a1.56,1.56,0,0,1,1.4-1.29A2.76,2.76,0,0,1,10.12,20.92Z" transform="translate(0 -0.03)"/><path class="cls-1" d="M3.65,22.38c-.36-.6.39-.9.41-1.41l.09.63C4.18,22,4.18,22.35,3.65,22.38Z" transform="translate(0 -0.03)"/><path class="cls-1" d="M20.49,17.43V16.8a2.12,2.12,0,0,1,.61-1C21.41,16.53,20.76,16.93,20.49,17.43Z" transform="translate(0 -0.03)"/><path class="cls-1" d="M36.31,22.34V22a1.61,1.61,0,0,1,.81,1.13C36.37,23.41,36.62,22.56,36.31,22.34Z" transform="translate(0 -0.03)"/><path class="cls-1" d="M6.89,19.87H6.57c.1-.63-.23-1.31.24-1.9C7.11,18.6,6.76,19.25,6.89,19.87Z" transform="translate(0 -0.03)"/><path class="cls-1" d="M29.76,12c.47.63.17,1.34.21,2A3.7,3.7,0,0,1,29.76,12Z" transform="translate(0 -0.03)"/><path class="cls-1" d="M6.76,4.86c.29.41-.19.5-.34.62S6.08,5.36,6,5.17A1.08,1.08,0,0,1,6.76,4.86Z" transform="translate(0 -0.03)"/><path class="cls-1" d="M2.93,6.47c.47.39.06.61-.16.86C2.48,7,2.07,6.6,2.93,6.47Z" transform="translate(0 -0.03)"/><path class="cls-1" d="M22.44,7.56c-.36-.14-.44-.35,0-.46a4.53,4.53,0,0,1,1.06,0C23.34,7.68,22.64,7.08,22.44,7.56Z" transform="translate(0 -0.03)"/><path class="cls-1" d="M6.36,9,5.25,8.87c.7-.2,1.17-.3,1.59.08Z" transform="translate(0 -0.03)"/><path class="cls-1" d="M32.76,26.7c-.41-.43-.23-1-.21-1.44A2.5,2.5,0,0,1,32.76,26.7Z" transform="translate(0 -0.03)"/><path class="cls-2" d="M8.21,6.27c-.4-.32-.49-.81-.16-1.09.6-.51,1.22.23,1.9,0C9.87,6,9.19,5.63,9,6S8.56,6.4,8.21,6.27Z" transform="translate(0 -0.03)"/><path class="cls-1" d="M15.19,1.74c.08-.3.15-.56.43-.48.49.14,1.14.09,1.37.59s-.28.33-.6.4C15.76,2.36,15.54,2,15.19,1.74Z" transform="translate(0 -0.03)"/><path class="cls-1" d="M7.86,24.53c.24,0,.45,0,.47.24S8.15,25,8,25s-.37-.1-.36-.32S7.76,24.57,7.86,24.53Z" transform="translate(0 -0.03)"/><path class="cls-1" d="M20.57,40.07V37.69h.11v2.38Z" transform="translate(0 -0.03)"/><text class="cls-3" transform="translate(46.67 42.74)">JOB HUNTER</text><text class="cls-4" transform="translate(345.62 42.08)">ONLINE</text><line class="cls-5" x1="337.76" y1="13.12" x2="337.76" y2="43.18"/></svg>